# xmcd
#
# Track frame offsets:
#	150
#	76073
#	91307
#	109730
#	163048
#	203355
#
# Disc length: 3020 seconds
#
# Revision: 1
# Processed by: cddbd v1.5.2PL0 Copyright (c) Steve Scherf et al.
# Submitted via: audiograbber 1.83.01
#
DISCID=390bca06
DTITLE=Klaus Schulze and Pete Namlook - The Dark Side Of The Moog [Boxset 3 - Vol
DTITLE=9-11 2016] [CD 2) - Vol. 10
DYEAR=2005
DGENRE=Electronic
TTITLE0=Astro Know Me Domina Part I
TTITLE1=Astro Know Me Domina Part II
TTITLE2=Astro Know Me Domina Part III
TTITLE3=Astro Know Me Domina Part IV
TTITLE4=Astro Know Me Domina Part V
TTITLE5=Astro Know Me Domina Part VI
EXTD=
EXTT0=
EXTT1=
EXTT2=
EXTT3=
EXTT4=
EXTT5=
PLAYORDER=
